# xmcd
#
# Track frame offsets: 
#        150
#        20550
#        39809
#        62809
#        81347
#        100547
#        118984
#        136984
#        156634
#        173659
#        191059
#        207784
#        241065
#        271471
#        297260
#        317210
#
# Disc length: 4560 seconds
#
# Revision: 0
# Processed by: cddbd v1.5.2PL0 Copyright (c) Steve Scherf et al.
# Submitted via: ExactAudioCopy v1.0b3
#
DISCID=e511ce10
DTITLE=Demis Roussos - Time
DYEAR=1988
DGENRE=Pop
TTITLE0=The Moon And I
TTITLE1=Time
TTITLE2=Turning
TTITLE3=Step By Step
TTITLE4=Mamy Blue
TTITLE5=Dance Of Love
TTITLE6=I Won't Give Up
TTITLE7=My Song Of Love
TTITLE8=Loving You
TTITLE9=Let The Bells Ring
TTITLE10=Looking For You
TTITLE11=Time (Extended Version)
TTITLE12=Mamy Blue (Remix)
TTITLE13=In My Dreams
TTITLE14=Nature Boy
TTITLE15=Bridge Over Troubled Water
EXTD=
EXTT0=
EXTT1=
EXTT2=
EXTT3=
EXTT4=
EXTT5=
EXTT6=
EXTT7=
EXTT8=
EXTT9=
EXTT10=
EXTT11=
EXTT12=
EXTT13=
EXTT14=
EXTT15=
PLAYORDER=
